<?xml version="1.0" encoding="UTF-8" standalone="no"?>
<!DOCTYPE svg PUBLIC "-//W3C//DTD SVG 1.1//EN"
 "http://www.w3.org/Graphics/SVG/1.1/DTD/svg11.dtd">
<!-- Generated by graphviz version 2.47.3 (20210619.1520)
 -->
<!-- Title: dependencies Pages: 1 -->
<svg width="723pt" height="174pt"
 viewBox="0.00 0.00 723.00 173.80" xmlns="http://www.w3.org/2000/svg" xmlns:xlink="http://www.w3.org/1999/xlink">
<g id="graph0" class="graph" transform="scale(1 1) rotate(0) translate(4 169.8)">
<title>dependencies</title>
<polygon fill="white" stroke="transparent" points="-4,4 -4,-169.8 719,-169.8 719,4 -4,4"/>
<text text-anchor="middle" x="357.5" y="-8.2" font-family="sans-serif" font-size="14.00">dependencies</text>
<g id="clust1" class="cluster">
<title>cluster_AppProductModule</title>
<polygon fill="none" stroke="black" stroke-dasharray="1,5" points="8,-32.8 8,-157.8 707,-157.8 707,-32.8 8,-32.8"/>
</g>
<g id="clust2" class="cluster">
<title>cluster_AppProductModule_declarations</title>
<polygon fill="none" stroke="black" points="212,-40.8 212,-92.8 699,-92.8 699,-40.8 212,-40.8"/>
</g>
<g id="clust6" class="cluster">
<title>cluster_AppProductModule_imports</title>
<polygon fill="none" stroke="black" points="16,-40.8 16,-92.8 204,-92.8 204,-40.8 16,-40.8"/>
</g>
<!-- FormProductComponent -->
<g id="node1" class="node">
<title>FormProductComponent</title>
<polygon fill="#ffffb3" stroke="black" points="690.71,-84.8 535.29,-84.8 535.29,-48.8 690.71,-48.8 690.71,-84.8"/>
<text text-anchor="middle" x="613" y="-62.6" font-family="Times,serif" font-size="14.00">FormProductComponent</text>
</g>
<!-- AppProductModule -->
<g id="node4" class="node">
<title>AppProductModule</title>
<polygon fill="#8dd3c7" stroke="black" points="424.7,-149.8 421.7,-153.8 400.7,-153.8 397.7,-149.8 297.3,-149.8 297.3,-113.8 424.7,-113.8 424.7,-149.8"/>
<text text-anchor="middle" x="361" y="-127.6" font-family="Times,serif" font-size="14.00">AppProductModule</text>
</g>
<!-- FormProductComponent&#45;&gt;AppProductModule -->
<g id="edge1" class="edge">
<title>FormProductComponent&#45;&gt;AppProductModule</title>
<path fill="none" stroke="black" d="M613,-84.91C613,-104.14 613,-131.8 613,-131.8 613,-131.8 434.92,-131.8 434.92,-131.8"/>
<polygon fill="black" stroke="black" points="434.92,-128.3 424.92,-131.8 434.92,-135.3 434.92,-128.3"/>
</g>
<!-- MainProductComponent -->
<g id="node2" class="node">
<title>MainProductComponent</title>
<polygon fill="#ffffb3" stroke="black" points="517.43,-84.8 362.57,-84.8 362.57,-48.8 517.43,-48.8 517.43,-84.8"/>
<text text-anchor="middle" x="440" y="-62.6" font-family="Times,serif" font-size="14.00">MainProductComponent</text>
</g>
<!-- MainProductComponent&#45;&gt;AppProductModule -->
<g id="edge2" class="edge">
<title>MainProductComponent&#45;&gt;AppProductModule</title>
<path fill="none" stroke="black" d="M393.69,-84.91C393.69,-84.91 393.69,-103.79 393.69,-103.79"/>
<polygon fill="black" stroke="black" points="390.19,-103.79 393.69,-113.79 397.19,-103.79 390.19,-103.79"/>
</g>
<!-- ProductComponent -->
<g id="node3" class="node">
<title>ProductComponent</title>
<polygon fill="#ffffb3" stroke="black" points="344.38,-84.8 219.62,-84.8 219.62,-48.8 344.38,-48.8 344.38,-84.8"/>
<text text-anchor="middle" x="282" y="-62.6" font-family="Times,serif" font-size="14.00">ProductComponent</text>
</g>
<!-- ProductComponent&#45;&gt;AppProductModule -->
<g id="edge3" class="edge">
<title>ProductComponent&#45;&gt;AppProductModule</title>
<path fill="none" stroke="black" d="M320.92,-84.91C320.92,-84.91 320.92,-103.79 320.92,-103.79"/>
<polygon fill="black" stroke="black" points="317.42,-103.79 320.92,-113.79 324.42,-103.79 317.42,-103.79"/>
</g>
<!-- AppProductRoutingModule -->
<g id="node5" class="node">
<title>AppProductRoutingModule</title>
<polygon fill="#8dd3c7" stroke="black" points="196.32,-84.8 193.32,-88.8 172.32,-88.8 169.32,-84.8 23.68,-84.8 23.68,-48.8 196.32,-48.8 196.32,-84.8"/>
<text text-anchor="middle" x="110" y="-62.6" font-family="Times,serif" font-size="14.00">AppProductRoutingModule</text>
</g>
<!-- AppProductRoutingModule&#45;&gt;AppProductModule -->
<g id="edge4" class="edge">
<title>AppProductRoutingModule&#45;&gt;AppProductModule</title>
<path fill="none" stroke="black" d="M110,-84.91C110,-104.14 110,-131.8 110,-131.8 110,-131.8 287.34,-131.8 287.34,-131.8"/>
<polygon fill="black" stroke="black" points="287.34,-135.3 297.34,-131.8 287.34,-128.3 287.34,-135.3"/>
</g>
</g>
</svg>
