<?xml version="1.0" encoding="UTF-8" standalone="no"?>
<!DOCTYPE svg PUBLIC "-//W3C//DTD SVG 1.1//EN"
 "http://www.w3.org/Graphics/SVG/1.1/DTD/svg11.dtd">
<!-- Generated by graphviz version 2.47.3 (20210619.1520)
 -->
<!-- Title: dependencies Pages: 1 -->
<svg width="809pt" height="174pt"
 viewBox="0.00 0.00 809.00 173.80" xmlns="http://www.w3.org/2000/svg" xmlns:xlink="http://www.w3.org/1999/xlink">
<g id="graph0" class="graph" transform="scale(1 1) rotate(0) translate(4 169.8)">
<title>dependencies</title>
<polygon fill="white" stroke="transparent" points="-4,4 -4,-169.8 805,-169.8 805,4 -4,4"/>
<text text-anchor="middle" x="400.5" y="-8.2" font-family="sans-serif" font-size="14.00">dependencies</text>
<g id="clust1" class="cluster">
<title>cluster_AppUserModule</title>
<polygon fill="none" stroke="black" stroke-dasharray="1,5" points="8,-32.8 8,-157.8 793,-157.8 793,-32.8 8,-32.8"/>
</g>
<g id="clust2" class="cluster">
<title>cluster_AppUserModule_declarations</title>
<polygon fill="none" stroke="black" points="196,-40.8 196,-92.8 785,-92.8 785,-40.8 196,-40.8"/>
</g>
<g id="clust7" class="cluster">
<title>cluster_AppUserModule_imports</title>
<polygon fill="none" stroke="black" points="16,-40.8 16,-92.8 188,-92.8 188,-40.8 16,-40.8"/>
</g>
<!-- FormUserComponent -->
<g id="node1" class="node">
<title>FormUserComponent</title>
<polygon fill="#ffffb3" stroke="black" points="777.09,-84.8 638.91,-84.8 638.91,-48.8 777.09,-48.8 777.09,-84.8"/>
<text text-anchor="middle" x="708" y="-62.6" font-family="Times,serif" font-size="14.00">FormUserComponent</text>
</g>
<!-- AppUserModule -->
<g id="node5" class="node">
<title>AppUserModule</title>
<polygon fill="#8dd3c7" stroke="black" points="475.08,-149.8 472.08,-153.8 451.08,-153.8 448.08,-149.8 364.92,-149.8 364.92,-113.8 475.08,-113.8 475.08,-149.8"/>
<text text-anchor="middle" x="420" y="-127.6" font-family="Times,serif" font-size="14.00">AppUserModule</text>
</g>
<!-- FormUserComponent&#45;&gt;AppUserModule -->
<g id="edge1" class="edge">
<title>FormUserComponent&#45;&gt;AppUserModule</title>
<path fill="none" stroke="black" d="M708,-85.08C708,-106.12 708,-137.8 708,-137.8 708,-137.8 485.19,-137.8 485.19,-137.8"/>
<polygon fill="black" stroke="black" points="485.19,-134.3 475.19,-137.8 485.19,-141.3 485.19,-134.3"/>
</g>
<!-- LoginComponent -->
<g id="node2" class="node">
<title>LoginComponent</title>
<polygon fill="#ffffb3" stroke="black" points="621.28,-84.8 506.72,-84.8 506.72,-48.8 621.28,-48.8 621.28,-84.8"/>
<text text-anchor="middle" x="564" y="-62.6" font-family="Times,serif" font-size="14.00">LoginComponent</text>
</g>
<!-- LoginComponent&#45;&gt;AppUserModule -->
<g id="edge2" class="edge">
<title>LoginComponent&#45;&gt;AppUserModule</title>
<path fill="none" stroke="black" d="M564,-84.82C564,-102.17 564,-125.8 564,-125.8 564,-125.8 485.26,-125.8 485.26,-125.8"/>
<polygon fill="black" stroke="black" points="485.26,-122.3 475.26,-125.8 485.26,-129.3 485.26,-122.3"/>
</g>
<!-- MainUserComponent -->
<g id="node3" class="node">
<title>MainUserComponent</title>
<polygon fill="#ffffb3" stroke="black" points="488.81,-84.8 351.19,-84.8 351.19,-48.8 488.81,-48.8 488.81,-84.8"/>
<text text-anchor="middle" x="420" y="-62.6" font-family="Times,serif" font-size="14.00">MainUserComponent</text>
</g>
<!-- MainUserComponent&#45;&gt;AppUserModule -->
<g id="edge3" class="edge">
<title>MainUserComponent&#45;&gt;AppUserModule</title>
<path fill="none" stroke="black" d="M420,-84.91C420,-84.91 420,-103.79 420,-103.79"/>
<polygon fill="black" stroke="black" points="416.5,-103.79 420,-113.79 423.5,-103.79 416.5,-103.79"/>
</g>
<!-- UserListComponent -->
<g id="node4" class="node">
<title>UserListComponent</title>
<polygon fill="#ffffb3" stroke="black" points="333.54,-84.8 204.46,-84.8 204.46,-48.8 333.54,-48.8 333.54,-84.8"/>
<text text-anchor="middle" x="269" y="-62.6" font-family="Times,serif" font-size="14.00">UserListComponent</text>
</g>
<!-- UserListComponent&#45;&gt;AppUserModule -->
<g id="edge4" class="edge">
<title>UserListComponent&#45;&gt;AppUserModule</title>
<path fill="none" stroke="black" d="M269,-84.82C269,-102.17 269,-125.8 269,-125.8 269,-125.8 354.63,-125.8 354.63,-125.8"/>
<polygon fill="black" stroke="black" points="354.63,-129.3 364.63,-125.8 354.63,-122.3 354.63,-129.3"/>
</g>
<!-- AppUserRoutingModule -->
<g id="node6" class="node">
<title>AppUserRoutingModule</title>
<polygon fill="#8dd3c7" stroke="black" points="179.7,-84.8 176.7,-88.8 155.7,-88.8 152.7,-84.8 24.3,-84.8 24.3,-48.8 179.7,-48.8 179.7,-84.8"/>
<text text-anchor="middle" x="102" y="-62.6" font-family="Times,serif" font-size="14.00">AppUserRoutingModule</text>
</g>
<!-- AppUserRoutingModule&#45;&gt;AppUserModule -->
<g id="edge5" class="edge">
<title>AppUserRoutingModule&#45;&gt;AppUserModule</title>
<path fill="none" stroke="black" d="M102,-85.08C102,-106.12 102,-137.8 102,-137.8 102,-137.8 354.61,-137.8 354.61,-137.8"/>
<polygon fill="black" stroke="black" points="354.61,-141.3 364.61,-137.8 354.61,-134.3 354.61,-141.3"/>
</g>
</g>
</svg>
