<?xml version="1.0" encoding="UTF-8" standalone="no"?>
<!DOCTYPE svg PUBLIC "-//W3C//DTD SVG 1.1//EN"
 "http://www.w3.org/Graphics/SVG/1.1/DTD/svg11.dtd">
<!-- Generated by graphviz version 2.47.3 (20210619.1520)
 -->
<!-- Title: dependencies Pages: 1 -->
<svg width="402pt" height="174pt"
 viewBox="0.00 0.00 402.00 173.80" xmlns="http://www.w3.org/2000/svg" xmlns:xlink="http://www.w3.org/1999/xlink">
<g id="graph0" class="graph" transform="scale(1 1) rotate(0) translate(4 169.8)">
<title>dependencies</title>
<polygon fill="white" stroke="transparent" points="-4,4 -4,-169.8 398,-169.8 398,4 -4,4"/>
<text text-anchor="middle" x="197" y="-8.2" font-family="sans-serif" font-size="14.00">dependencies</text>
<g id="clust1" class="cluster">
<title>cluster_AppRoutingModule</title>
<polygon fill="none" stroke="black" stroke-dasharray="1,5" points="8,-32.8 8,-157.8 386,-157.8 386,-32.8 8,-32.8"/>
</g>
<g id="clust3" class="cluster">
<title>cluster_AppRoutingModule_imports</title>
<polygon fill="none" stroke="black" points="16,-40.8 16,-92.8 378,-92.8 378,-40.8 16,-40.8"/>
</g>
<!-- AppProductRoutingModule -->
<g id="node1" class="node">
<title>AppProductRoutingModule</title>
<polygon fill="#8dd3c7" stroke="black" points="370.32,-84.8 367.32,-88.8 346.32,-88.8 343.32,-84.8 197.68,-84.8 197.68,-48.8 370.32,-48.8 370.32,-84.8"/>
<text text-anchor="middle" x="284" y="-62.6" font-family="Times,serif" font-size="14.00">AppProductRoutingModule</text>
</g>
<!-- AppRoutingModule -->
<g id="node3" class="node">
<title>AppRoutingModule</title>
<polygon fill="#8dd3c7" stroke="black" points="257.27,-149.8 254.27,-153.8 233.27,-153.8 230.27,-149.8 128.73,-149.8 128.73,-113.8 257.27,-113.8 257.27,-149.8"/>
<text text-anchor="middle" x="193" y="-127.6" font-family="Times,serif" font-size="14.00">AppRoutingModule</text>
</g>
<!-- AppProductRoutingModule&#45;&gt;AppRoutingModule -->
<g id="edge1" class="edge">
<title>AppProductRoutingModule&#45;&gt;AppRoutingModule</title>
<path fill="none" stroke="black" d="M227.61,-84.91C227.61,-84.91 227.61,-103.79 227.61,-103.79"/>
<polygon fill="black" stroke="black" points="224.11,-103.79 227.61,-113.79 231.11,-103.79 224.11,-103.79"/>
</g>
<!-- AppUserRoutingModule -->
<g id="node2" class="node">
<title>AppUserRoutingModule</title>
<polygon fill="#8dd3c7" stroke="black" points="179.7,-84.8 176.7,-88.8 155.7,-88.8 152.7,-84.8 24.3,-84.8 24.3,-48.8 179.7,-48.8 179.7,-84.8"/>
<text text-anchor="middle" x="102" y="-62.6" font-family="Times,serif" font-size="14.00">AppUserRoutingModule</text>
</g>
<!-- AppUserRoutingModule&#45;&gt;AppRoutingModule -->
<g id="edge2" class="edge">
<title>AppUserRoutingModule&#45;&gt;AppRoutingModule</title>
<path fill="none" stroke="black" d="M154.11,-84.91C154.11,-84.91 154.11,-103.79 154.11,-103.79"/>
<polygon fill="black" stroke="black" points="150.61,-103.79 154.11,-113.79 157.61,-103.79 150.61,-103.79"/>
</g>
</g>
</svg>
